<mxfile host="app.diagrams.net" modified="2023-11-20T06:52:28.039Z" agent="Mozilla/5.0 (Windows NT 10.0; Win64; x64) AppleWebKit/537.36 (KHTML, like Gecko) Chrome/116.0.0.0 Safari/537.36" etag="h-2ilMRIDede7hUbctox" version="22.1.3" type="github">
  <diagram name="Page-1" id="P0VWkr3vZlr9PXXk8qX3">
    <mxGraphModel dx="1434" dy="790" grid="1" gridSize="10" guides="1" tooltips="1" connect="1" arrows="1" fold="1" page="1" pageScale="1" pageWidth="850" pageHeight="1100" math="0" shadow="0">
      <root>
        <mxCell id="0" />
        <mxCell id="1" parent="0" />
        <mxCell id="TVs47A5dAmLujH9iVVek-1" value="Tourist app" style="rounded=0;whiteSpace=wrap;html=1;" parent="1" vertex="1">
          <mxGeometry x="210" y="130" width="120" height="60" as="geometry" />
        </mxCell>
        <mxCell id="TVs47A5dAmLujH9iVVek-2" value="OIS" style="rounded=0;whiteSpace=wrap;html=1;" parent="1" vertex="1">
          <mxGeometry x="455" y="130" width="120" height="60" as="geometry" />
        </mxCell>
        <mxCell id="TVs47A5dAmLujH9iVVek-3" value="Stripe Backend" style="rounded=0;whiteSpace=wrap;html=1;" parent="1" vertex="1">
          <mxGeometry x="690" y="130" width="120" height="60" as="geometry" />
        </mxCell>
        <mxCell id="TVs47A5dAmLujH9iVVek-4" value="" style="endArrow=none;html=1;rounded=0;entryX=0.5;entryY=1;entryDx=0;entryDy=0;" parent="1" target="TVs47A5dAmLujH9iVVek-1" edge="1">
          <mxGeometry width="50" height="50" relative="1" as="geometry">
            <mxPoint x="270" y="840" as="sourcePoint" />
            <mxPoint x="280" y="230" as="targetPoint" />
          </mxGeometry>
        </mxCell>
        <mxCell id="TVs47A5dAmLujH9iVVek-5" value="" style="endArrow=none;html=1;rounded=0;" parent="1" edge="1">
          <mxGeometry width="50" height="50" relative="1" as="geometry">
            <mxPoint x="515" y="840" as="sourcePoint" />
            <mxPoint x="515" y="190" as="targetPoint" />
          </mxGeometry>
        </mxCell>
        <mxCell id="TVs47A5dAmLujH9iVVek-6" value="" style="endArrow=none;html=1;rounded=0;entryX=0.5;entryY=1;entryDx=0;entryDy=0;" parent="1" edge="1">
          <mxGeometry width="50" height="50" relative="1" as="geometry">
            <mxPoint x="760" y="842" as="sourcePoint" />
            <mxPoint x="760" y="190" as="targetPoint" />
          </mxGeometry>
        </mxCell>
        <mxCell id="TVs47A5dAmLujH9iVVek-7" value="Ois search form database COF_PAYMENT&lt;br&gt;_ACCOUNT table by using mid&amp;nbsp;&lt;br&gt;&amp;nbsp;" style="rounded=0;whiteSpace=wrap;html=1;" parent="1" vertex="1">
          <mxGeometry x="430" y="280" width="160" height="120" as="geometry" />
        </mxCell>
        <mxCell id="TVs47A5dAmLujH9iVVek-8" value="" style="endArrow=classic;html=1;rounded=0;entryX=0;entryY=0.5;entryDx=0;entryDy=0;" parent="1" target="TVs47A5dAmLujH9iVVek-7" edge="1">
          <mxGeometry width="50" height="50" relative="1" as="geometry">
            <mxPoint x="270" y="340" as="sourcePoint" />
            <mxPoint x="320" y="280" as="targetPoint" />
          </mxGeometry>
        </mxCell>
        <mxCell id="TVs47A5dAmLujH9iVVek-9" value="Stripe SDK" style="rounded=0;whiteSpace=wrap;html=1;" parent="1" vertex="1">
          <mxGeometry x="10" y="130" width="120" height="60" as="geometry" />
        </mxCell>
        <mxCell id="TVs47A5dAmLujH9iVVek-10" value="" style="endArrow=none;html=1;rounded=0;entryX=0.5;entryY=1;entryDx=0;entryDy=0;" parent="1" edge="1">
          <mxGeometry width="50" height="50" relative="1" as="geometry">
            <mxPoint x="70" y="840" as="sourcePoint" />
            <mxPoint x="69.5" y="190" as="targetPoint" />
          </mxGeometry>
        </mxCell>
        <mxCell id="TVs47A5dAmLujH9iVVek-11" value="Send retrieve customer information request by including mid(hashed icloud id) in its request" style="text;html=1;strokeColor=none;fillColor=none;align=center;verticalAlign=middle;whiteSpace=wrap;rounded=0;" parent="1" vertex="1">
          <mxGeometry x="290" y="260" width="120" height="80" as="geometry" />
        </mxCell>
        <mxCell id="TVs47A5dAmLujH9iVVek-12" value="COF_PAYMENT&lt;br style=&quot;border-color: var(--border-color);&quot;&gt;_ACCOUNT" style="shape=datastore;whiteSpace=wrap;html=1;" parent="1" vertex="1">
          <mxGeometry x="620" y="420" width="110" height="90" as="geometry" />
        </mxCell>
        <mxCell id="TVs47A5dAmLujH9iVVek-13" value="" style="endArrow=classic;html=1;rounded=0;entryX=0.283;entryY=-0.033;entryDx=0;entryDy=0;entryPerimeter=0;exitX=1;exitY=1;exitDx=0;exitDy=0;" parent="1" source="TVs47A5dAmLujH9iVVek-7" target="TVs47A5dAmLujH9iVVek-12" edge="1">
          <mxGeometry width="50" height="50" relative="1" as="geometry">
            <mxPoint x="570" y="330" as="sourcePoint" />
            <mxPoint x="620" y="280" as="targetPoint" />
          </mxGeometry>
        </mxCell>
        <mxCell id="s6iq52kAN0ArNgkYWBzR-1" value="query by mid" style="edgeLabel;html=1;align=center;verticalAlign=middle;resizable=0;points=[];" parent="TVs47A5dAmLujH9iVVek-13" vertex="1" connectable="0">
          <mxGeometry x="0.0179" y="-3" relative="1" as="geometry">
            <mxPoint as="offset" />
          </mxGeometry>
        </mxCell>
        <mxCell id="TVs47A5dAmLujH9iVVek-14" value="" style="endArrow=classic;html=1;rounded=0;" parent="1" edge="1">
          <mxGeometry width="50" height="50" relative="1" as="geometry">
            <mxPoint x="270" y="730" as="sourcePoint" />
            <mxPoint x="70" y="730" as="targetPoint" />
          </mxGeometry>
        </mxCell>
        <mxCell id="TVs47A5dAmLujH9iVVek-15" value="Use the retrieved customer id and ephemeral key to open the SDK" style="text;html=1;strokeColor=none;fillColor=none;align=center;verticalAlign=middle;whiteSpace=wrap;rounded=0;" parent="1" vertex="1">
          <mxGeometry x="100" y="650" width="120" height="80" as="geometry" />
        </mxCell>
        <mxCell id="TVs47A5dAmLujH9iVVek-16" value="Whether ois can find the customer information or not?" style="rounded=0;whiteSpace=wrap;html=1;" parent="1" vertex="1">
          <mxGeometry x="420" y="460" width="182.5" height="90" as="geometry" />
        </mxCell>
        <mxCell id="TVs47A5dAmLujH9iVVek-17" value="" style="shape=flexArrow;endArrow=classic;html=1;rounded=0;" parent="1" edge="1">
          <mxGeometry width="50" height="50" relative="1" as="geometry">
            <mxPoint x="480" y="400" as="sourcePoint" />
            <mxPoint x="480" y="460" as="targetPoint" />
            <Array as="points">
              <mxPoint x="480" y="430" />
            </Array>
          </mxGeometry>
        </mxCell>
        <mxCell id="TVs47A5dAmLujH9iVVek-18" value="" style="endArrow=classic;html=1;rounded=0;" parent="1" edge="1">
          <mxGeometry width="50" height="50" relative="1" as="geometry">
            <mxPoint x="602.5" y="530" as="sourcePoint" />
            <mxPoint x="760" y="530" as="targetPoint" />
          </mxGeometry>
        </mxCell>
        <mxCell id="TVs47A5dAmLujH9iVVek-19" value="if can&#39;t find, create a new customer by calling stripe create Customer api" style="text;html=1;strokeColor=none;fillColor=none;align=center;verticalAlign=middle;whiteSpace=wrap;rounded=0;" parent="1" vertex="1">
          <mxGeometry x="610" y="550" width="110" height="30" as="geometry" />
        </mxCell>
        <mxCell id="TVs47A5dAmLujH9iVVek-20" value="" style="endArrow=classic;html=1;rounded=0;" parent="1" edge="1">
          <mxGeometry width="50" height="50" relative="1" as="geometry">
            <mxPoint x="760" y="642" as="sourcePoint" />
            <mxPoint x="600" y="640" as="targetPoint" />
          </mxGeometry>
        </mxCell>
        <mxCell id="TVs47A5dAmLujH9iVVek-21" value="return&amp;nbsp; customer infomration to ois" style="text;html=1;strokeColor=none;fillColor=none;align=center;verticalAlign=middle;whiteSpace=wrap;rounded=0;" parent="1" vertex="1">
          <mxGeometry x="635" y="660" width="60" height="30" as="geometry" />
        </mxCell>
        <mxCell id="TVs47A5dAmLujH9iVVek-22" value="" style="shape=flexArrow;endArrow=classic;html=1;rounded=0;" parent="1" edge="1">
          <mxGeometry width="50" height="50" relative="1" as="geometry">
            <mxPoint x="470" y="550" as="sourcePoint" />
            <mxPoint x="470" y="630" as="targetPoint" />
            <Array as="points">
              <mxPoint x="470" y="580" />
            </Array>
          </mxGeometry>
        </mxCell>
        <mxCell id="TVs47A5dAmLujH9iVVek-23" value="Generate ephemeral key for the customer" style="rounded=0;whiteSpace=wrap;html=1;" parent="1" vertex="1">
          <mxGeometry x="425" y="630" width="175" height="90" as="geometry" />
        </mxCell>
        <mxCell id="TVs47A5dAmLujH9iVVek-24" value="" style="endArrow=classic;html=1;rounded=0;" parent="1" edge="1">
          <mxGeometry width="50" height="50" relative="1" as="geometry">
            <mxPoint x="420" y="660" as="sourcePoint" />
            <mxPoint x="270" y="658" as="targetPoint" />
          </mxGeometry>
        </mxCell>
        <mxCell id="TVs47A5dAmLujH9iVVek-25" value="Return the customer id and ephemeral key to tourist app" style="text;html=1;strokeColor=none;fillColor=none;align=center;verticalAlign=middle;whiteSpace=wrap;rounded=0;" parent="1" vertex="1">
          <mxGeometry x="290" y="580" width="120" height="80" as="geometry" />
        </mxCell>
      </root>
    </mxGraphModel>
  </diagram>
</mxfile>
